
General

Complete name : The.Tourist.2010.Cam.Lu.avi

Format : AVI

Format/Info : Audio Video Interleave

File size : 702 MiB

Duration : 1h 35mn

Overall bit rate : 1 022 Kbps

Director : TEAM-SERENiTY

Writing application : MEncoder SVN-r30881(20100311-gcc4.3.3)

Writing library : VirtualDub build 32706/release

Copyright : TEAM-SERENiTY



Video

ID : 0

Format : MPEG-4 Visual

Format profile : Advanced Simple@L5

Format settings, BVOP : Yes

Format settings, QPel : No

Format settings, GMC : No warppoints

Format settings, Matrix : Default (H.263)

Muxing mode : Packed bitstream

Codec ID : XVID

Codec ID/Hint : XviD

Duration : 1h 35mn

Bit rate : 885 Kbps

Width : 704 pixels

Height : 302 pixels

Display aspect ratio : 2.35:1

Frame rate : 25.000 fps

Color space : YUV

Chroma subsampling : 4:2:0

Bit depth : 8 bits

Scan type : Progressive

Compression mode : Lossy

Bits/(Pixel*Frame) : 0.166

Stream size : 607 MiB (87%)

Writing library : XviD 1.2.1 (UTC 2008-12-04)



Audio

ID : 1

Format : MPEG Audio

Format version : Version 1

Format profile : Layer 3

Mode : Joint stereo

Mode extension : MS Stereo

Codec ID : 55

Codec ID/Hint : MP3

Duration : 1h 35mn

Bit rate mode : Constant

Bit rate : 128 Kbps

Channel(s) : 2 channels

Sampling rate : 48.0 KHz

Compression mode : Lossy

Stream size : 87.8 MiB (13%)

Alignment : Split accross interleaves

Interleave, duration : 40 ms (1.00 video frame)

Interleave, preload duration : 500 ms



ok this is english audio and my cam audio Lu and thanks for the video -SERENiTY 



now with no work done on video i lev that for all theres so call encoders out there who cant



get there own audio.



with that said it cam audio not line but will do till some line comes around
